<svg width="254" height="190" viewBox="0 0 254 190" fill="none" xmlns="http://www.w3.org/2000/svg">
  <path
    d="M159.617 50.0013C181.617 55.6013 198.284 75.5013 204.117 89.0013C206.655 96.7988 206.432 103.432 205.312 109.177C204.616 112.747 199.2 113.398 196.806 110.66C190.377 103.308 178.113 93.5318 157.609 92.0013C124.117 89.5013 83.6172 104.501 48.6172 89.0013C6.338 70.2776 -7.01601 21.5925 3.34015 13.5905C4.86566 12.4118 6.9437 13.2188 8.39743 14.4849L8.95126 14.9674C26.7869 30.5037 42.8179 44.468 65.6172 47.0013C88.1172 49.5013 132.117 43.0013 159.617 50.0013Z"
    fill="#ABCBFF" />
  <path fill-rule="evenodd" clip-rule="evenodd"
    d="M216.257 41.2665C222.4 39.5569 230.206 40.1569 239.406 42.5343C234.496 35.7075 228.474 28.3102 221.693 22.0987C211.509 12.7717 200.35 6.78372 189.122 8.21294C177.247 9.72459 170.305 14.6899 165.036 21.5548C160.9 26.9442 157.87 33.3386 154.445 40.5675C153.965 41.5804 153.477 42.6098 152.977 43.6551C177.719 49.4334 192.207 64.6898 201.561 79.7092C201.613 75.1985 201.772 69.675 202.04 62.1034C202.225 56.8899 203.362 52.314 205.78 48.6618C208.251 44.9287 211.842 42.4954 216.257 41.2665ZM202.099 97.5783C193.33 79.0182 179.135 56.1953 146.789 50.5568C146.569 50.5583 146.25 50.5607 145.838 50.5641C144.99 50.5712 143.752 50.5828 142.194 50.6006C139.078 50.6363 134.683 50.6973 129.571 50.798C119.338 50.9996 106.268 51.3602 94.8391 51.9951C93.0005 52.0973 91.112 52.2196 89.1776 52.3448L89.1773 52.3449C70.0658 53.5825 46.4626 55.1109 22.0472 40.3792C26.5801 51.635 30.4015 59.1728 34.4583 64.6585C39.6591 71.6913 45.367 75.5081 54.2048 79.3299C72.3206 87.1637 81.7754 89.0517 94.5883 89.0545C107.847 88.8605 114.238 88.3667 120.35 87.8001C121.097 87.7309 121.841 87.6604 122.594 87.5891C128.1 87.0677 134.075 86.5019 144.954 86.0578C167.316 85.1451 188.464 96.8776 202.647 112.558C202.715 107.05 202.407 102.063 202.099 97.5783ZM121.089 95.766C115.547 96.2796 109.784 96.732 99.3377 96.9682C101.806 107.771 108.912 118.398 120.845 122.248C128.271 124.643 136.506 126.104 142.958 126.965C146.169 127.393 148.904 127.668 150.831 127.835C151.794 127.919 152.554 127.976 153.068 128.011C153.325 128.029 153.521 128.042 153.651 128.05L153.714 128.053L153.74 128.055C162.016 128.089 171.612 128.336 180.621 130.083C187.414 131.401 194.141 133.619 199.798 137.449C200.94 132.529 201.383 129.175 201.902 124.323C189.273 106.84 167.56 93.1418 145.28 94.0512C134.618 94.4864 128.819 95.0355 123.346 95.5537L123.336 95.5547C122.585 95.6258 121.839 95.6964 121.089 95.766ZM179.098 137.937C175.671 137.273 172.116 136.841 168.54 136.561C172.793 139.855 176.423 143.623 179.461 148.253C183.486 154.385 186.338 161.828 188.384 171.3C192.242 162.144 195.44 153.301 197.609 145.815C192.895 141.812 186.478 139.368 179.098 137.937ZM172.773 152.642C168.18 145.644 161.829 140.809 152.531 135.993L152.516 135.992C151.958 135.954 151.151 135.893 150.138 135.805C148.112 135.629 145.253 135.341 141.901 134.894C135.229 134.005 126.463 132.466 118.389 129.861C102.35 124.688 93.7254 110.322 91.1772 97.0071C78.6484 96.6476 68.3434 94.1598 51.0295 86.6727C41.3673 82.4945 34.3252 77.9331 28.0261 69.4152C21.9009 61.1325 16.6125 49.2792 9.86322 30.9357C9.24138 29.2457 9.82555 27.3485 11.2903 26.3009C12.7551 25.2534 14.7392 25.3138 16.1376 26.4485C41.8627 47.3232 66.7996 45.7424 88.7678 44.3497L88.7685 44.3496C90.6667 44.2293 92.5428 44.1104 94.3953 44.0075C105.966 43.3647 119.146 43.0018 129.413 42.7995C134.551 42.6983 138.969 42.6371 142.103 42.6012C143.067 42.5901 143.91 42.5815 144.615 42.5748C145.387 40.9812 146.149 39.3714 146.912 37.7595C150.44 30.3068 153.987 22.8117 158.69 16.6841C165.174 8.23586 173.988 2.07489 188.112 0.276976C202.884 -1.60337 216.345 6.35215 227.096 16.1993C237.946 26.137 246.792 38.6831 252.487 47.5907C253.409 49.0317 253.312 50.8991 252.246 52.2371C251.181 53.575 249.383 54.0875 247.772 53.5123C233.866 48.5459 224.301 47.3317 218.402 48.9735C215.632 49.7445 213.744 51.1238 212.45 53.0781C211.103 55.1134 210.187 58.1 210.035 62.3865C209.364 81.3482 209.392 87.1028 210.028 96.2778C210.535 103.589 211.148 112.831 210.016 123.661C209.195 131.515 208.669 135.678 205.978 145.601C202.821 157.243 197.098 172.247 190.233 186.765C189.473 188.372 187.743 189.285 185.987 189.005C184.23 188.724 182.87 187.318 182.648 185.554C180.68 169.898 177.535 159.899 172.773 152.642ZM199.617 35.745C196.58 35.745 194.117 33.2826 194.117 30.245C194.117 27.2074 196.58 24.745 199.617 24.745C202.655 24.745 205.117 27.2074 205.117 30.245C205.117 33.2826 202.655 35.745 199.617 35.745Z"
    fill="#020207" />
</svg>